<?xml version="1.0" encoding="UTF-8" standalone="no"?>
<svg
   xmlns:dc="http://purl.org/dc/elements/1.1/"
   xmlns:cc="http://creativecommons.org/ns#"
   xmlns:rdf="http://www.w3.org/1999/02/22-rdf-syntax-ns#"
   xmlns:svg="http://www.w3.org/2000/svg"
   xmlns="http://www.w3.org/2000/svg"
   id="svg8"
   version="1.1"
   viewBox="0 0 4.2333332 4.2333334"
   height="16"
   width="16">
  <defs
     id="defs2" />
  <metadata
     id="metadata5">
    <rdf:RDF>
      <cc:Work
         rdf:about="">
        <dc:format>image/svg+xml</dc:format>
        <dc:type
           rdf:resource="http://purl.org/dc/dcmitype/StillImage" />
        <dc:title></dc:title>
      </cc:Work>
    </rdf:RDF>
  </metadata>
  <g
     transform="translate(0,-292.76665)"
     id="layer1">
    <path
       d="m 2.7769355,296.27609 v -2.78556 h 0.3221401 c 0.3789884,0 0.5836422,0.0758 0.6935489,0.28804 0.1061166,0.21222 0.1212762,0.5609 0.1212762,1.10664 0,0.54575 -0.015159,0.89062 -0.1212762,1.10285 -0.1099067,0.21224 -0.3145605,0.28803 -0.6935489,0.28803 z m 0.4093075,-0.4093 c 0.1402257,0 0.2198132,-0.0152 0.261502,-0.1516 0.01895,-0.0644 0.034109,-0.16296 0.037898,-0.29561 0.00379,-0.13264 0.00379,-0.31077 0.00379,-0.53816 0,-0.22739 0,-0.40551 -0.00379,-0.53816 -0.00379,-0.12886 -0.01895,-0.2274 -0.037898,-0.29561 -0.041689,-0.13265 -0.1212763,-0.14781 -0.261502,-0.14781 z m -0.6841333,-0.16297 c -0.00379,0.1137 -0.026529,0.21603 -0.068218,0.30319 -0.034109,0.0758 -0.087168,0.14781 -0.162965,0.20466 -0.075798,0.0606 -0.1781246,0.0947 -0.3145604,0.0947 -0.1364358,0 -0.2425526,-0.0342 -0.3183502,-0.0947 -0.075798,-0.0568 -0.1250662,-0.12886 -0.1591752,-0.20466 -0.041689,-0.0872 -0.064429,-0.18949 -0.068218,-0.30319 v -1.64101 c 0.00379,-0.10992 0.026529,-0.21224 0.068218,-0.29941 0.034109,-0.0758 0.083377,-0.15159 0.1591752,-0.20844 0.075798,-0.0568 0.1819144,-0.0947 0.3183502,-0.0947 0.1364358,0 0.2387628,0.0379 0.3145604,0.0947 0.075798,0.0568 0.1288559,0.13265 0.162965,0.20844 0.041689,0.0872 0.064429,0.18949 0.068218,0.29941 z m -0.4093075,-1.64101 c 0,-0.0758 -0.015159,-0.12887 -0.053058,-0.17434 -0.01895,-0.019 -0.049269,-0.0304 -0.083377,-0.0304 -0.072008,0 -0.1061168,0.0531 -0.1212763,0.10233 -0.01137,0.0304 -0.015159,0.0644 -0.015159,0.10232 v 1.64102 c 0,0.0796 0.01895,0.13265 0.056848,0.17433 0.01895,0.019 0.045478,0.0304 0.079588,0.0304 0.072008,0 0.1061167,-0.0454 0.1212762,-0.10232 0.01137,-0.0265 0.015159,-0.0606 0.015159,-0.10234 z m -1.77336959,-0.57228 h 0.40930748 v 2.40658 H 1.2706935 v 0.37898 H 0.31943261 Z"
       style="font-style:normal;font-variant:normal;font-weight:normal;font-stretch:normal;font-size:medium;line-height:125%;font-family:'League Gothic';-inkscape-font-specification:'League Gothic';font-variant-ligatures:normal;font-variant-caps:normal;font-variant-numeric:normal;font-feature-settings:normal;text-align:start;letter-spacing:0px;word-spacing:0px;writing-mode:lr-tb;direction:ltr;text-anchor:start;fill:#fc9c9c;fill-opacity:1;stroke:none;stroke-width:0.26458332px;stroke-linecap:butt;stroke-linejoin:miter;stroke-opacity:1"
       id="path824" />
  </g>
</svg>
